<?xml version="1.0" encoding="utf-8"?>
<!-- Generator: Adobe Illustrator 27.3.1, SVG Export Plug-In . SVG Version: 6.00 Build 0)  -->
<svg version="1.1" id="Layer_1" xmlns="http://www.w3.org/2000/svg" xmlns:xlink="http://www.w3.org/1999/xlink" x="0px" y="0px"
	 viewBox="0 0 400 400" style="enable-background:new 0 0 400 400;" xml:space="preserve">
<style type="text/css">
	.st0{fill:none;}
	.st1{fill:none;stroke:#1A2428;stroke-width:20;stroke-linecap:round;stroke-linejoin:round;stroke-miterlimit:10;}
	.st2{fill:#1A2428;}
</style>
<path class="st0" d="M200.1,199.9c-0.1,0.1-0.2,0.1-0.3,0.2C199.9,200,200.1,200,200.1,199.9C200.2,199.9,200.1,199.9,200.1,199.9z"
	/>
<polyline class="st1" points="172.7,273.9 238.7,200 172.7,126.1 "/>
<g>
	<path class="st2" d="M200,10c25.7,0,50.5,5,74,14.9c22.6,9.6,42.9,23.3,60.4,40.7c17.5,17.5,31.2,37.8,40.7,60.4
		c9.9,23.4,14.9,48.3,14.9,74s-5,50.5-14.9,74c-9.6,22.6-23.3,42.9-40.7,60.4c-17.5,17.5-37.8,31.2-60.4,40.7
		c-23.4,9.9-48.3,14.9-74,14.9s-50.5-5-74-14.9c-22.6-9.6-42.9-23.3-60.4-40.7c-17.5-17.5-31.2-37.8-40.7-60.4
		C15,250.5,10,225.7,10,200s5-50.5,14.9-74c9.6-22.6,23.3-42.9,40.7-60.4c17.5-17.5,37.8-31.2,60.4-40.7C149.5,15,174.3,10,200,10
		 M200,0C89.5,0,0,89.5,0,200s89.5,200,200,200s200-89.5,200-200S310.5,0,200,0L200,0z"/>
</g>
</svg>
