<?xml version="1.0" encoding="utf-8"?>
<!-- Generator: Adobe Illustrator 27.3.1, SVG Export Plug-In . SVG Version: 6.00 Build 0)  -->
<svg version="1.1" id="Layer_1" xmlns="http://www.w3.org/2000/svg" xmlns:xlink="http://www.w3.org/1999/xlink" x="0px" y="0px"
	 viewBox="0 0 405 405" style="enable-background:new 0 0 405 405;" xml:space="preserve">
<style type="text/css">
	.st0{fill:none;}
	.st1{fill:none;stroke:#1A2428;stroke-width:20;stroke-linecap:round;stroke-linejoin:round;stroke-miterlimit:10;}
	.st2{fill:#1A2428;}
	.st3{fill:#FFFFFF;stroke:#000000;stroke-width:2;stroke-miterlimit:10;}
</style>
<path class="st0" d="M-249.1,202.4c-0.1,0.1-0.2,0.1-0.3,0.2C-249.3,202.5-249.1,202.5-249.1,202.4
	C-249,202.4-249.1,202.4-249.1,202.4z"/>
<polyline class="st1" points="-276.5,276.4 -210.5,202.5 -276.5,128.6 "/>
<g>
	<path class="st2" d="M-249.2,12.5c25.7,0,50.5,5,74,14.9c22.6,9.6,42.9,23.3,60.4,40.7c17.5,17.5,31.2,37.8,40.7,60.4
		c9.9,23.4,14.9,48.3,14.9,74s-5,50.5-14.9,74c-9.6,22.6-23.3,42.9-40.7,60.4c-17.5,17.5-37.8,31.2-60.4,40.7
		c-23.4,9.9-48.3,14.9-74,14.9s-50.5-5-74-14.9c-22.6-9.6-42.9-23.3-60.4-40.7c-17.5-17.5-31.2-37.8-40.7-60.4
		c-9.9-23.5-14.9-48.3-14.9-74s5-50.5,14.9-74c9.6-22.6,23.3-42.9,40.7-60.4c17.5-17.5,37.8-31.2,60.4-40.7
		C-299.7,17.5-274.9,12.5-249.2,12.5 M-249.2,2.5c-110.5,0-200,89.5-200,200s89.5,200,200,200s200-89.5,200-200
		S-138.7,2.5-249.2,2.5L-249.2,2.5z"/>
</g>
<polygon class="st3" points="375.7,202.5 29.3,2.5 29.3,402.5 375.7,202.5 29.3,2.5 29.3,402.5 "/>
</svg>
