<?xml version="1.0" encoding="utf-8"?>
<!-- Generator: Adobe Illustrator 27.3.1, SVG Export Plug-In . SVG Version: 6.00 Build 0)  -->
<svg version="1.1" id="Layer_1" xmlns="http://www.w3.org/2000/svg" xmlns:xlink="http://www.w3.org/1999/xlink" x="0px" y="0px"
	 viewBox="0 0 405 405" style="enable-background:new 0 0 405 405;" xml:space="preserve">
<style type="text/css">
	.st0{fill:none;stroke:#FFFFFF;stroke-width:5;stroke-linecap:round;stroke-linejoin:round;}
	.st1{fill:#FFFFFF;}
	.st2{fill:#1A2428;}
	.st3{fill:#FFFFFF;stroke:#000000;stroke-width:2;stroke-miterlimit:10;}
</style>
<g>
	<g>
		<line class="st0" x1="-172.7" y1="208.5" x2="-264.3" y2="208.5"/>
		<g>
			<polygon class="st1" points="-254.4,194 -308.6,208.5 -254.4,223 			"/>
		</g>
	</g>
</g>
<g>
	<path class="st2" d="M-133.7,349.7c-99.3-26.4-197.4-56.6-295.1-87.8c-7.5-2.5-14.7-6.3-20.8-11.4c-25.2-20.8-29.8-58.4-10.5-84.8
		c7.1-9.6,16.9-17.3,28.1-21.5c30.9-10.3,64.3-20.5,95.5-30.2c67.2-20.6,134.8-40.8,202.9-58.7c-87.3,34.5-175.9,65.7-264.7,96
		c-3.9,1.3-23.9,8-27.3,9.3c-3.8,1.5-7.4,3.6-10.6,6c-16.7,12.5-22.5,36-13.6,54.8c3.4,7.4,8.9,13.8,15.6,18.4
		c3.3,2.3,7.1,4.1,10.9,5.5C-326.2,278.2-229.3,312.1-133.7,349.7L-133.7,349.7z"/>
</g>
<polygon class="st3" points="29.3,202.5 375.7,402.5 375.7,2.5 29.3,202.5 375.7,402.5 375.7,2.5 "/>
</svg>
