<?xml version="1.0" encoding="utf-8"?>
<!-- Generator: Adobe Illustrator 27.3.1, SVG Export Plug-In . SVG Version: 6.00 Build 0)  -->
<svg version="1.1" id="Layer_1" xmlns="http://www.w3.org/2000/svg" xmlns:xlink="http://www.w3.org/1999/xlink" x="0px" y="0px"
	 viewBox="0 0 400 400" style="enable-background:new 0 0 400 400;" xml:space="preserve">
<style type="text/css">
	.st0{fill:none;stroke:#FFFFFF;stroke-width:5;stroke-linecap:round;stroke-linejoin:round;}
	.st1{fill:#FFFFFF;}
	.st2{fill:#1A2428;}
	.st3{fill:none;}
	.st4{fill:none;stroke:#1A2428;stroke-width:20;stroke-linecap:round;stroke-linejoin:round;stroke-miterlimit:10;}
</style>
<g>
	<g>
		<line class="st0" x1="-175.2" y1="206" x2="-266.8" y2="206"/>
		<g>
			<polygon class="st1" points="-256.9,191.5 -311.1,206 -256.9,220.5 			"/>
		</g>
	</g>
</g>
<g>
	<path class="st2" d="M-136.2,347.2c-99.3-26.4-197.4-56.6-295.1-87.8c-7.5-2.5-14.7-6.3-20.8-11.4c-25.2-20.8-29.8-58.4-10.5-84.8
		c7.1-9.6,16.9-17.3,28.1-21.5c30.9-10.3,64.3-20.5,95.5-30.2c67.2-20.6,134.8-40.8,202.9-58.7c-87.3,34.5-175.9,65.7-264.7,96
		c-3.9,1.3-23.9,8-27.3,9.3c-3.8,1.5-7.4,3.6-10.6,6c-16.7,12.5-22.5,36-13.6,54.8c3.4,7.4,8.9,13.8,15.6,18.4
		c3.3,2.3,7.1,4.1,10.9,5.5C-328.7,275.7-231.8,309.6-136.2,347.2L-136.2,347.2z"/>
</g>
<path class="st3" d="M200.1,199.9c-0.1,0.1-0.2,0.1-0.3,0.2C199.9,200,200.1,200,200.1,199.9C200.2,199.9,200.1,199.9,200.1,199.9z"
	/>
<g>
	<path class="st2" d="M200,10c25.7,0,50.5,5,74,14.9c22.6,9.6,42.9,23.3,60.4,40.7c17.5,17.5,31.2,37.8,40.7,60.4
		c9.9,23.4,14.9,48.3,14.9,74s-5,50.5-14.9,74c-9.6,22.6-23.3,42.9-40.7,60.4c-17.5,17.5-37.8,31.2-60.4,40.7
		c-23.4,9.9-48.3,14.9-74,14.9s-50.5-5-74-14.9c-22.6-9.6-42.9-23.3-60.4-40.7c-17.5-17.5-31.2-37.8-40.7-60.4
		C15,250.5,10,225.7,10,200s5-50.5,14.9-74c9.6-22.6,23.3-42.9,40.7-60.4c17.5-17.5,37.8-31.2,60.4-40.7C149.5,15,174.3,10,200,10
		 M200,0C89.5,0,0,89.5,0,200s89.5,200,200,200s200-89.5,200-200S310.5,0,200,0L200,0z"/>
</g>
<polyline class="st4" points="227.3,126.1 161.3,200 227.3,273.9 "/>
</svg>
