<?xml version="1.0" encoding="utf-8"?>
<!-- Generator: Adobe Illustrator 27.3.1, SVG Export Plug-In . SVG Version: 6.00 Build 0)  -->
<svg version="1.1" id="Layer_1" xmlns="http://www.w3.org/2000/svg" xmlns:xlink="http://www.w3.org/1999/xlink" x="0px" y="0px"
	 viewBox="0 0 400 400" style="enable-background:new 0 0 400 400;" xml:space="preserve">
<style type="text/css">
	.st0{fill:#FFFFFF;}
</style>
<g>
	<g>
		<g>
			<path class="st0" d="M332.7,56.9c-7.6,0-14.9,1.8-21.5,5.2c-0.5-0.8-8.3-29.4-34.7-29.4c-9.2,0-27.8,7.8-35.3,12.7
				c-4-16.1-12.8-26.2-31.4-26.2c-27.1,0-35.6,25.6-35.6,25.6c0-20.2-16.4-36.5-36.5-36.5l0,0c-20.2,0-36.5,16.4-36.5,36.5v89.8
				c0,0-50,0.8-50.1,0.6c-28.8,0-40.5,39-21.9,108.3c10.8,40.4,37.8,61,76.7,83.8v64.3c19.4,0,230.7,0,230.7,0v-64.3
				c18.3-17,43.1-33.6,43.1-93c0-64.2,0.2-130.4,0.2-130.4C379.8,78,358.7,56.9,332.7,56.9z"/>
		</g>
	</g>
	<g>
		<path d="M173.4,144.9c-4.6,0-8.4-3.7-8.4-8.4V39.9c0-4.6,3.7-8.4,8.4-8.4s8.4,3.7,8.4,8.4v96.6
			C181.8,141.1,178.1,144.9,173.4,144.9z"/>
		<path d="M101,208.4c-4.6,0-8.4-3.7-8.4-8.4v-94.9c0-4.6,3.7-8.4,8.4-8.4c4.6,0,8.4,3.7,8.4,8.4V200
			C109.4,204.6,105.6,208.4,101,208.4z"/>
		<path d="M240.5,144.9c-4.6,0-8.4-3.7-8.4-8.4V43c0-4.6,3.7-8.4,8.4-8.4s8.4,3.7,8.4,8.4v93.5C248.9,141.1,245.1,144.9,240.5,144.9
			z"/>
		<path d="M336.5,400H105.8c-4.6,0-8.4-3.7-8.4-8.4v-59.5c-33.8-20.2-64.6-42.6-76.4-86.4C8,196.9,8.8,159.6,23.4,140.5
			c6.8-8.9,16.4-13.6,27.6-13.6c0.3,0,0.6,0,0.8,0c3.1,0.1,24.1-0.2,41-0.5V44.9C92.8,20.1,113,0,137.7,0c17.4,0,32.5,9.9,39.9,24.4
			c7.2-7.3,17.8-13.5,32.2-13.5c17.3,0,29.4,7.6,36.1,22.5c9.4-4.4,22.1-9.1,30.6-9.1c16.9,0,30.8,9.7,39.2,26.8
			c5.5-1.8,11.2-2.7,16.9-2.7c30.6,0,55.5,24.9,55.5,55.5c0,0-0.2,66.2-0.2,130.4c0,58-22.7,78.4-40.9,94.7c-0.7,0.7-1.5,1.3-2.2,2
			v60.6C344.8,396.3,341.1,400,336.5,400z M114.2,383.3h213.9v-55.9c0-2.3,1-4.5,2.7-6.1c1.6-1.5,3.3-3.1,5.1-4.6
			c17.4-15.6,35.4-31.8,35.4-82.3c0-64.2,0.2-130.4,0.2-130.4c0-21.3-17.4-38.7-38.8-38.7c-6.2,0-12.1,1.4-17.6,4.3
			c-3.9,2-8.6,0.7-10.9-3.1c-0.5-0.8-0.7-1.5-1-2.3C299.4,53.6,291.7,41,276.6,41c-6.6,0-23.4,6.6-30.8,11.4
			c-2.3,1.5-5.1,1.8-7.6,0.8c-2.5-1-4.4-3.1-5-5.7c-3.6-14.3-10.1-19.9-23.3-19.9c-20.5,0-27.4,19.2-27.6,20
			c-1.3,3.9-5.3,6.2-9.3,5.5c-4-0.7-7-4.1-7-8.2c0-15.5-12.6-28.2-28.2-28.2c-15.5,0-28.2,12.6-28.2,28.2v89.8
			c0,4.6-3.7,8.3-8.2,8.4c-30.3,0.5-43.8,0.7-50.3,0.1v0.5c-6,0-10.7,2.3-14.4,7c-11,14.4-10.9,48.3,0.5,90.7
			c9.6,35.9,33,55.4,72.8,78.8c2.6,1.5,4.1,4.2,4.1,7.2V383.3z"/>
		<path d="M311.8,144.9c-4.6,0-8.4-3.7-8.4-8.4V64.2c0-4.6,3.7-8.4,8.4-8.4s8.4,3.7,8.4,8.4v72.4
			C320.1,141.1,316.4,144.9,311.8,144.9z"/>
	</g>
</g>
</svg>
