<?xml version="1.0" encoding="utf-8"?>
<!-- Generator: Adobe Illustrator 27.3.1, SVG Export Plug-In . SVG Version: 6.00 Build 0)  -->
<svg version="1.1" id="Layer_1" xmlns="http://www.w3.org/2000/svg" xmlns:xlink="http://www.w3.org/1999/xlink" x="0px" y="0px"
	 viewBox="0 0 400 400" style="enable-background:new 0 0 400 400;" xml:space="preserve">
<style type="text/css">
	.st0{fill:#FFFFFF;}
</style>
<g>
	<g>
		<g>
			<path class="st0" d="M314.4,393.2H167.9c-10.2,0-19.8-4.7-26.1-12.7C117.2,349.1,53.4,268,29.5,240.8
				c-29.8-34.1,6.4-68.2,34.1-40.5s69.3,75.7,69.3,75.7S104.5,126.9,94.5,87.1c-8.5-33.9,30.9-58.4,48-17.9
				c17.1,40.5,40.5,109.4,40.5,109.4s1.9-103.9-1.1-145.6c-2.1-30.4,49-39.3,50.1,0c1.1,39.3,10.7,149.3,10.7,149.3
				s14-124.7,17.3-149.3s48.6-21.4,48.6,14.8c0,30.6-10.6,143.8-10.6,143.8S332.2,96,342.8,79.4c10.7-16.6,46.9-2.4,37.3,26.2
				c-9.6,28.6-25,92.5-26,114.9c-1.5,35-6.4,92.8-6.6,139.8C347.5,378.5,332.7,393.2,314.4,393.2z"/>
		</g>
	</g>
	<g>
		<path d="M314.4,400H167.9c-12.4,0-23.8-5.6-31.4-15.3c-25.9-33-88.5-112.5-112.1-139.4c-18.8-21.4-14.7-43-3-53.9
			c10.7-10,30-13,47.1,4.1c16.6,16.6,38.3,40.6,53,57.2c-8.5-44-26.2-134.6-33.6-163.9c-5.6-22.4,6.5-41,21.5-46.1
			c11.9-4,29.3-0.1,39.4,23.8c8.9,21.2,19.7,50.3,27.9,73.3c0.3-33.9,0.2-81.5-1.5-106.3c-0.8-11.4,4.3-21.5,13.9-27.8
			c10.2-6.7,23.4-7.6,33.5-2.3c5.9,3.1,15.7,11,16.2,29.4c0.5,17.5,2.7,49.6,5,79.5c3.8-33.2,7.9-68.4,9.5-80.2
			c1.8-13.8,13.9-22.8,29.3-21.7c15.8,1,32.9,13.2,32.9,37.5c0,17.2-3.2,59-6.1,93.3c10.2-26.8,22-56.6,27.8-65.5
			c6.6-10.2,20.7-13.2,33.6-7c12.4,6,22.1,20.3,15.9,39c-10,29.8-24.7,92.3-25.6,113c-0.5,11.9-1.4,26.6-2.4,42.2
			c-1.9,31.1-4.1,66.4-4.2,97.3C354.3,382.2,336.3,400,314.4,400z M41.8,196.9c-4.4,0-8.3,1.7-11.2,4.4c-7.1,6.6-8.8,20.4,4,35
			c23.8,27.2,86.6,107,112.5,140c5,6.4,12.6,10.1,20.7,10.1h146.5c14.4,0,26.3-11.7,26.3-26.2c0.2-31.3,2.3-66.7,4.3-98.1
			c1-15.5,1.9-30.2,2.3-41.9c1-23.7,16.9-88.6,26.3-116.8c3.9-11.5-2-19.1-8.8-22.4c-5.7-2.7-13.1-2.9-16.3,2.1
			c-8.4,13.1-34.7,84.5-44.1,110.9c-1.2,3.2-4.5,5.1-7.9,4.4c-3.4-0.7-5.6-3.9-5.3-7.3c0.1-1.1,10.6-113.2,10.6-143.2
			c0-15.6-10.1-23.2-20.1-23.9c-6.7-0.4-13.9,2.4-14.9,9.9c-3.2,24.2-17.1,147.9-17.3,149.1c-0.4,3.5-3.4,6.1-6.9,6.1
			c-3.5,0-6.4-2.7-6.7-6.2c-0.4-4.5-9.7-110.6-10.8-149.7c-0.2-8.7-3.3-14.8-8.9-17.7c-5.7-3-13.7-2.4-19.7,1.6
			c-3.2,2.1-8.4,6.9-7.8,15.5c2.9,41.5,1.2,141.9,1.1,146.2c-0.1,3.3-2.5,6.1-5.8,6.6c-3.3,0.5-6.4-1.4-7.5-4.5
			c-0.2-0.7-23.6-69.2-40.3-109c-5.5-13-13.9-19.1-22.5-16.2c-8.9,3-16.2,15.2-12.6,29.8c9.9,39.5,37.3,183.1,38.5,189.2
			c0.6,3-1,6.1-3.7,7.4c-2.8,1.3-6.1,0.7-8.1-1.7c-0.4-0.5-41.7-48.1-68.9-75.3C53,199.3,47,196.9,41.8,196.9z"/>
	</g>
</g>
</svg>
